<svg width="88" height="18" viewBox="0 0 88 18" fill="none" xmlns="http://www.w3.org/2000/svg">
<path d="M8.14157 2.01914C9.65358 1.91737 11.1947 2.22267 12.5467 2.90599C14.5531 3.8946 16.1523 5.66831 16.8938 7.76185C17.2281 8.69232 17.4026 9.6664 17.4026 10.655V14.3042C17.4026 14.4496 17.4026 14.6095 17.3735 14.7549C17.2863 15.1183 17.0246 15.4527 16.6757 15.6127C16.4285 15.729 16.1523 15.7435 15.9051 15.6999C15.3527 15.5981 14.9165 15.0747 14.9165 14.5077C14.9165 13.3737 14.9165 12.2397 14.9165 11.1057C14.9311 10.7859 14.9311 10.4369 14.7566 10.1607C14.4804 9.63732 13.7825 9.39017 13.2446 9.60824C12.7794 9.76817 12.445 10.2479 12.4304 10.7422C12.4304 11.8908 12.4304 13.0393 12.4304 14.1879C12.4304 14.406 12.445 14.624 12.3723 14.8276C12.256 15.2346 11.9216 15.5545 11.5145 15.6708C10.9766 15.8162 10.366 15.5836 10.1043 15.0893C9.91527 14.7985 9.92981 14.435 9.94435 14.1006C9.94435 12.9521 9.94435 11.8181 9.94435 10.6696C9.92981 10.088 9.45004 9.56463 8.88303 9.49194C8.50503 9.43378 8.11249 9.56463 7.83626 9.82632C7.58911 10.0589 7.45826 10.3933 7.45826 10.7277V14.057C7.45826 14.3333 7.48734 14.624 7.38557 14.8857C7.22564 15.3655 6.74587 15.7144 6.23702 15.6999C5.71364 15.729 5.20479 15.3655 5.04487 14.8857C4.95763 14.6386 4.97217 14.3914 4.97217 14.1297C4.97217 12.9812 4.97217 11.8326 4.97217 10.6841C4.97217 10.1171 4.52148 9.59371 3.96902 9.49194C3.46017 9.39017 2.9077 9.63732 2.64601 10.1026C2.54424 10.2916 2.48609 10.5096 2.48609 10.7277V14.4641C2.48609 14.8276 2.32616 15.191 2.04993 15.4236C1.62831 15.7871 0.945004 15.8162 0.508848 15.4818C0.189001 15.2637 0 14.8857 0 14.4932V10.7132C0 9.2884 0.363463 7.86362 1.04677 6.59877C1.59924 5.56654 2.36978 4.65061 3.2857 3.92368C4.63779 2.78968 6.36787 2.12091 8.14157 2.01914Z" fill="#5841D8"/>
<path d="M42.1181 6.39524H40.2281C40.3007 5.07223 40.577 3.88007 41.7837 3.12407C42.9904 2.38261 44.3134 2.20814 45.6945 2.32445C46.436 2.38261 47.1775 2.54253 47.8608 2.86238C49.0675 3.41484 49.6635 4.35985 49.6635 5.68285C49.6635 8.02355 49.6635 10.3643 49.6635 12.705C49.6635 13.5627 49.838 13.7227 50.6958 13.6354C50.783 13.6209 50.8848 13.6063 50.972 13.5918C50.9866 13.6354 50.9866 13.679 50.9866 13.7081V15.1329C50.3032 15.3655 49.6054 15.4382 48.9221 15.2492C48.4132 15.1038 48.0934 14.7403 47.9189 14.2606C47.8317 14.0134 47.7735 13.7517 47.7008 13.4755C47.6282 13.5627 47.57 13.6354 47.4973 13.7081C45.9998 15.2201 44.2261 15.8598 42.1326 15.3219C40.6497 14.9439 39.632 13.5918 39.5884 12.0507C39.5738 11.5564 39.6174 11.0621 39.7337 10.5823C40.01 9.47741 40.7951 8.80863 41.7837 8.35794C42.4815 8.03809 43.2375 7.95086 43.9935 7.84909C44.8804 7.73278 45.7527 7.63101 46.6395 7.50017C47.2356 7.41293 47.5409 7.09309 47.6282 6.49701C47.8172 5.29031 47.2792 4.49069 46.1162 4.19992C45.4183 4.02546 44.7059 3.99639 43.9935 4.12723C42.9468 4.31623 42.3652 4.91231 42.1617 5.94455C42.1762 6.08993 42.1471 6.23531 42.1181 6.39524ZM47.6863 8.7214C46.814 9.18663 45.9708 9.30294 45.113 9.43379C44.4006 9.5501 43.6737 9.65187 42.9758 9.86995C42.0599 10.1753 41.6383 10.9313 41.7255 11.949C41.7982 12.7922 42.3652 13.4755 43.2811 13.6209C44.6914 13.8535 45.9417 13.461 46.9303 12.4142C47.2211 12.1089 47.4537 11.6727 47.5118 11.2656C47.6427 10.4515 47.6282 9.62279 47.6863 8.7214ZM74.6262 11.1639C74.5826 11.3674 74.5535 11.5419 74.5099 11.7018C73.6957 14.1879 72.0383 15.2492 70.032 15.4818C66.5573 15.8598 64.5655 13.5918 64.0567 11.1784C63.6496 9.25933 63.7078 7.35478 64.551 5.552C65.3506 3.851 66.63 2.73153 68.5345 2.39714C70.8171 1.99007 74.0446 3.12407 74.5826 6.68601C74.728 7.60193 74.757 8.54694 74.8443 9.50648H66.0048C66.0775 10.8149 66.2811 12.0362 67.2406 12.9812C67.6332 13.3737 68.142 13.5627 68.6945 13.6645C70.4827 13.9843 71.9656 13.1266 72.5472 11.3965C72.6053 11.2075 72.6926 11.1493 72.8816 11.1639C73.4486 11.1639 74.0156 11.1639 74.6262 11.1639ZM66.0775 7.82001H72.6926C72.6199 7.04947 72.489 6.33708 72.1256 5.66831C71.7766 5.02862 71.2678 4.56339 70.5699 4.33077C68.2874 3.54569 65.9321 5.36301 66.0775 7.82001ZM79.3803 15.0602H77.374V2.58615H79.2785V4.33077C79.4239 4.17085 79.5111 4.06908 79.5984 3.96731C80.965 2.41169 82.6805 2.00461 84.6287 2.48438C85.9808 2.81876 86.7368 3.77831 86.9985 5.11585C87.1002 5.66831 87.1729 6.23532 87.1729 6.78778C87.1875 9.46287 87.1875 12.138 87.1875 14.813C87.1875 14.8857 87.1729 14.9584 87.1729 15.0457H85.123V14.7113C85.123 12.2106 85.1375 9.71002 85.1085 7.20939C85.1085 6.65693 85.0212 6.08993 84.8613 5.552C84.5996 4.67969 83.9018 4.21446 82.9858 4.17085C81.3139 4.11269 79.9909 4.99954 79.5838 6.48247C79.4384 7.02039 79.3948 7.5874 79.3948 8.1544C79.3803 10.3497 79.3803 12.5305 79.3803 14.6967V15.0602ZM52.9347 2.58615H54.8683V7.87817C54.9846 7.76186 55.0573 7.7037 55.13 7.63101C56.7147 6.01724 58.2994 4.38892 59.8841 2.77515C60.015 2.62976 60.1458 2.57161 60.3494 2.57161C61.0908 2.58615 61.8468 2.57161 62.661 2.57161C62.5447 2.68792 62.4865 2.76061 62.4138 2.8333C61.0181 4.229 59.637 5.63924 58.2267 7.0204C58.0668 7.18032 58.0668 7.28209 58.1686 7.45655C59.6951 9.88448 61.2071 12.3124 62.7191 14.7404C62.7773 14.8276 62.8209 14.9148 62.8936 15.0457C62.7918 15.0602 62.7191 15.0602 62.6319 15.0602C61.9341 15.0602 61.2507 15.0602 60.5529 15.0602C60.3639 15.0602 60.2767 14.9875 60.1749 14.8421C59.0118 12.894 57.8487 10.9458 56.6857 8.9831C56.6275 8.89586 56.5839 8.80863 56.5112 8.70686C55.9733 9.24479 55.4499 9.75364 54.9265 10.2916C54.8538 10.3643 54.8393 10.4951 54.8393 10.5969C54.8393 11.9635 54.8393 13.3301 54.8393 14.6967V15.0457C54.4613 15.0457 54.0833 15.0457 53.7198 15.0457C53.4581 15.0457 53.0946 15.1183 52.9493 14.973C52.8184 14.8567 52.8911 14.4787 52.8911 14.217V2.92053C52.9347 2.84784 52.9347 2.73153 52.9347 2.58615ZM30.6181 2.57161C29.0479 4.12723 27.5214 5.65378 25.9803 7.18032C27.6377 9.82633 29.2515 12.4142 30.8943 15.0602C30.7635 15.0602 30.6762 15.0747 30.589 15.0747C29.9202 15.0747 29.2369 15.0747 28.5682 15.0747C28.3792 15.0747 28.2629 15.002 28.1611 14.8421C26.998 12.894 25.8349 10.9458 24.6718 8.9831C24.6282 8.89586 24.5701 8.82317 24.4974 8.70686C24.2066 9.01217 23.9449 9.34656 23.6251 9.57918C22.9708 10.0735 22.7818 10.6841 22.8254 11.4983C22.8981 12.5596 22.84 13.6354 22.84 14.6967V15.0457H20.9209V2.58615H22.84V7.79094C22.8836 7.82001 22.9272 7.84909 22.9563 7.87817C23.0144 7.79094 23.0435 7.68917 23.1017 7.61648C24.6718 6.0027 26.2565 4.40346 27.8267 2.77515C27.9721 2.62976 28.1029 2.55707 28.321 2.57161C28.9752 2.58615 29.6295 2.57161 30.2837 2.57161C30.3855 2.57161 30.4727 2.57161 30.6181 2.57161ZM34.4563 4.65061C35.4303 3.22584 36.4626 2.03369 38.3817 2.38261V4.51977C37.8728 4.54885 37.364 4.53431 36.8842 4.63608C35.7066 4.88323 34.7906 5.95908 34.6016 7.26755C34.5726 7.52924 34.5435 7.79094 34.5435 8.05263C34.5435 10.277 34.5435 12.5014 34.5435 14.7258V15.0747H32.5663V2.61522H34.4563C34.4563 3.26946 34.4563 3.92369 34.4563 4.65061Z" fill="#5841D8"/>
</svg>
